<svg width="760" height="760" viewBox="0 0 760 760" fill="none" xmlns="http://www.w3.org/2000/svg">
  <rect width="760" height="760" rx="38" fill="#f0e5e2"/>
  <circle cx="612" cy="132" r="104" fill="#d1a66f"/>
  <circle cx="136" cy="625" r="118" fill="#4f806f"/>
  <rect x="118" y="112" width="524" height="536" rx="34" fill="#FFFFFF"/>
  <circle cx="382" cy="254" r="90" fill="#d1a66f"/>
  <path d="M264 462C290 384 329 346 384 346C439 346 480 384 505 462L538 562H231L264 462Z" fill="#80534f"/>
  <path d="M478 286C515 248 584 250 617 292" stroke="#80534f" stroke-width="18" stroke-linecap="round"/>
  <path d="M145 314C183 274 244 276 279 314" stroke="#c99a66" stroke-width="18" stroke-linecap="round"/>
  <rect x="184" y="592" width="394" height="22" rx="11" fill="#80534f"/>
  <rect x="260" y="628" width="242" height="18" rx="9" fill="#4f806f"/>
</svg>

